<svg xmlns="http://www.w3.org/2000/svg" xmlns:xlink="http://www.w3.org/1999/xlink" id="Layer_1" x="0px" y="0px" viewBox="0 0 576 512" style="enable-background:new 0 0 576 512;" xml:space="preserve"><g>	<path d="M163.87,409.75c-1.84-1.46-3.56-2.6-5-4.02c-7.19-7.1-14.16-14.43-21.52-21.34c-3.6-3.38-3.55-6.04-0.67-9.84  c18.02-23.74,36.07-47.45,53.57-71.56c3.08-4.24,5-10.26,5.13-15.52c0.56-21.76,0.48-43.56,0.03-65.33  c-0.09-4.55-1.73-9.8-4.39-13.45c-17.11-23.41-34.43-46.68-52.3-69.51c-5.15-6.58-5.05-10.62,1.25-15.91  c6.33-5.31,12.12-11.35,17.62-17.54c4.13-4.64,7.34-4.84,12.33-1.01c23.21,17.82,46.58,35.42,70.18,52.72  c3.67,2.69,8.77,4.69,13.25,4.78c23.07,0.47,46.15,0.47,69.22,0c4.49-0.09,9.61-2.05,13.28-4.73  c23.6-17.31,46.96-34.94,70.18-52.76c4.95-3.8,8.18-3.65,12.36,0.98c6.25,6.92,12.95,13.45,19.79,19.79  c4.07,3.77,4.17,6.83,0.81,11.21c-16.55,21.57-32.64,43.49-49.35,64.94c-5.7,7.31-8.51,14.68-8.25,24.12  c0.6,21.5-0.06,43.04,0.4,64.55c0.1,4.55,1.8,9.77,4.48,13.44c17.11,23.44,34.57,46.63,52.25,69.64c3.86,5.02,3.52,8.18-1.08,12.31  c-6.74,6.04-13.18,12.48-19.25,19.2c-4.2,4.66-7.45,4.62-12.34,0.85c-23-17.67-46.15-35.15-69.55-52.28  c-3.65-2.67-8.88-4.34-13.42-4.42c-23.59-0.43-47.19-0.37-70.77-0.04c-3.83,0.05-8.27,1.42-11.33,3.67  c-23.37,17.18-46.45,34.74-69.65,52.15C168.86,406.52,166.44,408.01,163.87,409.75z"></path>	<path d="M414.81,222.12c7.65-10.38,15.06-20.16,22.17-30.16c7.7-10.82,16.61-19.77,28.08-27.18  c22.12-14.29,29.85-39.13,22.89-65.63c-6.32-24.04-27.34-41.92-51.74-45.28c-26.9-3.7-46.53,7.67-60.42,29.25  c-8.84,13.74-22.81,20.69-34.58,30.53c-6.07,5.07-12.75,9.42-19.52,14.35c-6.34-33.17,6.32-75.76,46.32-102.91  c40.42-27.44,96.69-25.12,135.7,12.72c35.69,34.61,44.08,90.26,16.16,134.76C495.21,211.83,452.25,227.96,414.81,222.12z"></path>	<path d="M161.07,222.25c-37.98,5.27-78.53-9.84-103.77-47.79c-26.6-40-24.22-96.06,12.85-134.47  C102.66,6.3,150.55-2.53,192.37,16.55c47.11,21.49,67.9,67.18,62.94,111.55c-4.04-2.59-7.69-4.68-11.06-7.15  c-7.31-5.35-14.34-11.09-21.73-16.32c-9.54-6.77-17.2-14.78-24.12-24.55c-15.72-22.21-33.91-30.97-64.14-25.45  c-23.32,4.26-42.72,25.65-47.71,50.63c-4.88,24.45,5.63,47.77,26.61,60.65c17.72,10.88,26.16,28.95,38.87,43.68  C155.2,213.24,157.69,217.47,161.07,222.25z"></path>	<path d="M415.83,289.04c28.83-10.31,80.71,13.29,102.46,45.86c25.66,38.43,22.42,94.39-5.41,127.84  c-35.97,43.23-90.11,49.57-129.67,31.11c-48.66-22.71-67.51-69.77-62.36-110.61c2.48,1.31,4.79,2.18,6.71,3.59  c11.69,8.56,23.51,16.98,34.83,26.02c4.52,3.61,8.69,8.21,11.63,13.19c16.34,27.6,41.8,36.11,66.3,30.1  c30.95-7.58,50.2-31.67,50.24-61.84c0.03-21.04-10.56-37.51-27.03-49.09c-9.57-6.73-17.52-14.17-24.2-23.48  c-6.04-8.42-12.41-16.6-18.55-24.94C419.02,294.37,417.55,291.74,415.83,289.04z"></path>	<path d="M160.96,289.17c-12.47,16.47-23.73,32.61-36.42,47.52c-5.86,6.88-14.86,10.98-21.86,17.01  c-20.72,17.85-21.51,50-8.49,72.78c17.05,29.84,59.44,41.09,86.23,21.82c7.59-5.46,13.39-13.41,19.95-20.28  c5.82-6.09,11.06-12.86,17.47-18.25c9.5-7.99,19.77-15.06,29.79-22.42c2.15-1.58,4.64-2.69,7.32-4.21  c5.29,39.34-11.57,80.86-51.02,104.83c-45.24,27.47-100.34,17.77-133.38-17.1c-36.05-38.05-40.89-90.68-13.3-135.17  C77.3,303.36,130,279.02,160.96,289.17z"></path></g></svg>