<svg xmlns="http://www.w3.org/2000/svg" xmlns:xlink="http://www.w3.org/1999/xlink" id="Layer_1" x="0px" y="0px" viewBox="0 0 512 512" style="enable-background:new 0 0 512 512;" xml:space="preserve"><path d="M216.31,304.13c-0.59-0.47-1.14-0.84-1.61-1.29c-2.31-2.28-4.55-4.64-6.92-6.86c-1.16-1.09-1.14-1.94-0.21-3.16 c5.79-7.63,11.59-15.25,17.22-23c0.99-1.36,1.61-3.3,1.65-4.99c0.18-6.99,0.15-14,0.01-20.99c-0.03-1.46-0.55-3.15-1.41-4.32 c-5.5-7.52-11.06-15-16.81-22.34c-1.65-2.11-1.62-3.41,0.4-5.11c2.03-1.71,3.89-3.65,5.66-5.64c1.33-1.49,2.36-1.56,3.96-0.32 c7.46,5.73,14.97,11.38,22.55,16.94c1.18,0.86,2.82,1.51,4.26,1.54c7.41,0.15,14.83,0.15,22.24,0c1.44-0.03,3.09-0.66,4.27-1.52 c7.58-5.56,15.09-11.23,22.55-16.95c1.59-1.22,2.63-1.17,3.97,0.32c2.01,2.22,4.16,4.32,6.36,6.36c1.31,1.21,1.34,2.19,0.26,3.6 c-5.32,6.93-10.49,13.98-15.86,20.87c-1.83,2.35-2.74,4.72-2.65,7.75c0.19,6.91-0.02,13.83,0.13,20.74 c0.03,1.46,0.58,3.14,1.44,4.32c5.5,7.53,11.11,14.98,16.79,22.38c1.24,1.61,1.13,2.63-0.35,3.95c-2.17,1.94-4.24,4.01-6.18,6.17 c-1.35,1.5-2.39,1.48-3.97,0.27c-7.39-5.68-14.83-11.3-22.35-16.8c-1.17-0.86-2.85-1.39-4.31-1.42c-7.58-0.14-15.16-0.12-22.74-0.01 c-1.23,0.02-2.66,0.46-3.64,1.18c-7.51,5.52-14.93,11.16-22.38,16.76C217.91,303.1,217.14,303.57,216.31,304.13z"></path><path d="M296.95,243.84c2.46-3.34,4.84-6.48,7.12-9.69c2.47-3.48,5.34-6.35,9.02-8.73c7.11-4.59,9.59-12.58,7.35-21.09 c-2.03-7.72-8.79-13.47-16.63-14.55c-8.64-1.19-14.95,2.46-19.42,9.4c-2.84,4.42-7.33,6.65-11.11,9.81 c-1.95,1.63-4.1,3.03-6.27,4.61c-2.04-10.66,2.03-24.34,14.88-33.07c12.99-8.82,31.07-8.07,43.61,4.09 c11.47,11.12,14.17,29,5.19,43.3C322.78,240.53,308.98,245.72,296.95,243.84z"></path><path d="M215.41,243.88c-12.2,1.69-25.24-3.16-33.35-15.36c-8.55-12.85-7.78-30.87,4.13-43.21c10.45-10.82,25.84-13.66,39.28-7.53 c15.14,6.91,21.82,21.59,20.22,35.84c-1.3-0.83-2.47-1.5-3.55-2.3c-2.35-1.72-4.61-3.56-6.98-5.25c-3.07-2.17-5.53-4.75-7.75-7.89 c-5.05-7.14-10.9-9.95-20.61-8.18c-7.49,1.37-13.73,8.24-15.33,16.27c-1.57,7.86,1.81,15.35,8.55,19.49 c5.69,3.5,8.41,9.3,12.49,14.04C213.52,240.99,214.33,242.34,215.41,243.88z"></path><path d="M297.28,265.34c9.27-3.31,25.94,4.27,32.93,14.74c8.25,12.35,7.21,30.33-1.74,41.08c-11.56,13.89-28.96,15.93-41.67,10 c-15.64-7.3-21.69-22.42-20.04-35.54c0.8,0.42,1.54,0.7,2.16,1.15c3.76,2.75,7.56,5.46,11.19,8.36c1.45,1.16,2.79,2.64,3.74,4.24 c5.25,8.87,13.43,11.6,21.31,9.67c9.94-2.44,16.13-10.18,16.15-19.87c0.01-6.76-3.39-12.05-8.69-15.77 c-3.07-2.16-5.63-4.55-7.78-7.54c-1.94-2.7-3.99-5.33-5.96-8.02C298.3,267.06,297.83,266.21,297.28,265.34z"></path><path d="M215.37,265.39c-4.01,5.29-7.62,10.48-11.7,15.27c-1.88,2.21-4.78,3.53-7.02,5.47c-6.66,5.73-6.91,16.07-2.73,23.39 c5.48,9.59,19.1,13.2,27.71,7.01c2.44-1.75,4.3-4.31,6.41-6.52c1.87-1.96,3.55-4.13,5.61-5.87c3.05-2.57,6.35-4.84,9.57-7.2 c0.69-0.51,1.49-0.86,2.35-1.35c1.7,12.64-3.72,25.99-16.39,33.69c-14.54,8.83-32.24,5.71-42.86-5.5 c-11.59-12.23-13.14-29.14-4.27-43.44C188.49,269.94,205.43,262.12,215.37,265.39z"></path></svg>